<svg xmlns="http://www.w3.org/2000/svg" width="19.846" height="19.846" viewBox="0 0 19.846 19.846">
  <g id="Group_89" data-name="Group 89" transform="translate(-586.238 -2795.148)">
    <g id="instagram-icon" transform="translate(586.238 2795.148)">
      <path id="Path_216" data-name="Path 216" d="M9.923,1.788c2.65,0,2.963.01,4.01.058a5.492,5.492,0,0,1,1.843.342,3.075,3.075,0,0,1,1.141.742,3.074,3.074,0,0,1,.742,1.141A5.491,5.491,0,0,1,18,5.913c.048,1.046.058,1.36.058,4.01s-.01,2.963-.058,4.01a5.491,5.491,0,0,1-.342,1.843,3.286,3.286,0,0,1-1.883,1.883A5.491,5.491,0,0,1,13.932,18c-1.046.048-1.36.058-4.01.058s-2.963-.01-4.01-.058a5.49,5.49,0,0,1-1.843-.342,3.074,3.074,0,0,1-1.141-.742,3.074,3.074,0,0,1-.742-1.141,5.491,5.491,0,0,1-.342-1.843c-.048-1.046-.058-1.36-.058-4.01s.01-2.963.058-4.01a5.491,5.491,0,0,1,.342-1.843A3.074,3.074,0,0,1,2.93,2.93a3.075,3.075,0,0,1,1.141-.742,5.492,5.492,0,0,1,1.842-.342c1.046-.048,1.36-.058,4.01-.058M9.923,0C7.228,0,6.89.011,5.832.06A7.283,7.283,0,0,0,3.423.521,4.864,4.864,0,0,0,1.665,1.665,4.864,4.864,0,0,0,.521,3.423,7.283,7.283,0,0,0,.06,5.832C.011,6.89,0,7.228,0,9.923s.011,3.033.06,4.091a7.283,7.283,0,0,0,.461,2.409A4.864,4.864,0,0,0,1.665,18.18a4.864,4.864,0,0,0,1.758,1.145,7.284,7.284,0,0,0,2.409.461c1.058.048,1.4.06,4.091.06s3.033-.011,4.091-.06a7.283,7.283,0,0,0,2.409-.461,5.074,5.074,0,0,0,2.9-2.9,7.284,7.284,0,0,0,.461-2.409c.048-1.058.06-1.4.06-4.091s-.011-3.033-.06-4.091a7.284,7.284,0,0,0-.461-2.409A4.864,4.864,0,0,0,18.18,1.665,4.864,4.864,0,0,0,16.423.521,7.283,7.283,0,0,0,14.014.06C12.956.011,12.618,0,9.923,0Zm0,4.827a5.1,5.1,0,1,0,5.1,5.1A5.1,5.1,0,0,0,9.923,4.827Zm0,8.4A3.308,3.308,0,1,1,13.23,9.923,3.308,3.308,0,0,1,9.923,13.231Zm6.488-8.6A1.191,1.191,0,1,1,15.22,3.435,1.191,1.191,0,0,1,16.41,4.626Z" transform="translate(0 0)" fill="#fff"/>
    </g>
  </g>
</svg>
