<svg xmlns="http://www.w3.org/2000/svg" width="196" height="38.888" viewBox="0 0 196 38.888">
  <g id="mybigaday_basic_white_logo" transform="translate(-65.33 -65.28)">
    <path id="Path_148" data-name="Path 148" d="M71.39,115.708a2.692,2.692,0,0,0,1.8.579v.612H65.33v-.612a2.725,2.725,0,0,0,1.764-.579,2.488,2.488,0,0,0,.7-2.027V100.207a2.492,2.492,0,0,0-.7-2.027,2.707,2.707,0,0,0-1.764-.573V97h5.377v16.692a2.539,2.539,0,0,0,.683,2.027M69.6,102.241H70.83a8.761,8.761,0,0,1,1.785-3.877A4.974,4.974,0,0,1,76.78,96.6a4.6,4.6,0,0,1,4.03,1.764,8.65,8.65,0,0,1,1.262,5.1v10.228a2.488,2.488,0,0,0,.707,2.027,2.71,2.71,0,0,0,1.761.573v.612H76.7v-.612a2.793,2.793,0,0,0,1.807-.573,2.488,2.488,0,0,0,.7-2.027v-9.83a10.19,10.19,0,0,0-.7-4.407,2.739,2.739,0,0,0-2.689-1.366q-2.245,0-3.675,2.6t-1.43,8.329h-1.1Zm11.37.043h1.277a8.3,8.3,0,0,1,1.764-3.92,4.982,4.982,0,0,1,4.14-1.764,4.722,4.722,0,0,1,4.1,1.764,8.583,8.583,0,0,1,1.277,5.1v10.228a2.539,2.539,0,0,0,.683,2.027,2.7,2.7,0,0,0,1.785.573v.612H88.156v-.612a2.8,2.8,0,0,0,1.785-.579,2.442,2.442,0,0,0,.729-2.027v-9.824a10.151,10.151,0,0,0-.707-4.407,2.74,2.74,0,0,0-2.686-1.366q-2.294,0-3.748,2.646T82.074,109h-1.1Z" transform="translate(0 -21.729)" fill="#000"/>
    <path id="Path_149" data-name="Path 149" d="M165.69,99.034a4.119,4.119,0,0,0-2.07-.551V97.87h5.512l6.477,19.92h-3.087L167.1,100.9a3.2,3.2,0,0,0-1.412-1.871m14.056.407a1.8,1.8,0,0,0-1.145-.747,8,8,0,0,0-1.938-.2v-.612h8.372v.612a4.085,4.085,0,0,0-2.095.551,3.228,3.228,0,0,0-1.387,1.871l-6.918,21.273a15.921,15.921,0,0,1-1.17,2.8,3.368,3.368,0,0,1-1.387,1.366,4.951,4.951,0,0,1-2.2.42,4.655,4.655,0,0,1-3.675-1.412,4.455,4.455,0,0,1-.992-3.656l2.909.352a3.578,3.578,0,0,0,.462,2.578,1.926,1.926,0,0,0,1.565.815,1.88,1.88,0,0,0,1.586-.683,9.462,9.462,0,0,0,1.145-2.578l6.918-21.285a1.686,1.686,0,0,0-.043-1.476" transform="translate(-68.192 -22.61)" fill="#000"/>
    <path id="Path_150" data-name="Path 150" d="M269.39,106.5v-.612a2.725,2.725,0,0,0,1.764-.573,2.488,2.488,0,0,0,.7-2.027V84.822a2.492,2.492,0,0,0-.7-2.027,2.707,2.707,0,0,0-1.764-.573V81.61h5.331V106.5Zm7.316-18.729a6.036,6.036,0,0,1,4.452-1.586,6.706,6.706,0,0,1,5.353,2.336q2.009,2.336,2.006,8.02,0,5.641-2.006,7.962a6.7,6.7,0,0,1-5.353,2.315,5.781,5.781,0,0,1-4.41-1.675,7.849,7.849,0,0,1-2.027-4.054h-1.188V91.651h1.188a7.067,7.067,0,0,1,1.984-3.877m7.447,15.424q1.188-2.159,1.191-6.654a14.325,14.325,0,0,0-1.225-6.722,3.95,3.95,0,0,0-3.675-2.18,4.639,4.639,0,0,0-2.774.919,6.618,6.618,0,0,0-2.116,2.909,13.22,13.22,0,0,0-.839,5.068,12.8,12.8,0,0,0,.839,5,6.732,6.732,0,0,0,2.116,2.888,4.639,4.639,0,0,0,2.774.919,3.944,3.944,0,0,0,3.7-2.144" transform="translate(-141.572 -11.329)" fill="#000"/>
    <path id="Path_151" data-name="Path 151" d="M348.55,116.6a2.627,2.627,0,0,0,1.739.573v.612h-7.8v-.612a2.719,2.719,0,0,0,1.764-.573,2.5,2.5,0,0,0,.7-2.027V101.1a2.492,2.492,0,0,0-.7-2.027,2.7,2.7,0,0,0-1.764-.573V97.89h5.377v16.692a2.539,2.539,0,0,0,.683,2.027" transform="translate(-192.288 -22.624)" fill="#000"/>
    <path id="Path_152" data-name="Path 152" d="M380.9,123.475a6.752,6.752,0,0,1-3.218-2.379,5.047,5.047,0,0,1-.857-3.414l6.213-3,.306.306-3.834,3.087a3.454,3.454,0,0,0,.551,2.554,4.946,4.946,0,0,0,2.355,1.785,9.625,9.625,0,0,0,3.613.64,7.561,7.561,0,0,0,4.52-1.148,3.506,3.506,0,0,0,1.562-2.952q0-3.169-4.186-3.3l-5.111-.175a5.516,5.516,0,0,1-3.791-1.344,3.607,3.607,0,0,1-1.014-3.24l4.452-1.675.263.4-2.291,1.672a1.531,1.531,0,0,0,.9,1.369,8.545,8.545,0,0,0,3.194.527l4.407.178a7.381,7.381,0,0,1,4.364,1.409,4.42,4.42,0,0,1,1.586,3.659,5.04,5.04,0,0,1-2.312,4.287,10.578,10.578,0,0,1-6.281,1.629,14.78,14.78,0,0,1-5.4-.86m.484-14.086a5.95,5.95,0,0,1-2.532-2.465,7.287,7.287,0,0,1-.839-3.506,7.19,7.19,0,0,1,.839-3.457,5.959,5.959,0,0,1,2.532-2.468,8.575,8.575,0,0,1,4.076-.919,7.276,7.276,0,0,1,3.923,1.014l.612.573a5.3,5.3,0,0,1,2.049,2.027A7.006,7.006,0,0,1,392.08,107a6.03,6.03,0,0,1-2.578,2.4,8.767,8.767,0,0,1-4.054.879,8.574,8.574,0,0,1-4.076-.9m7.383-2.049a7.249,7.249,0,0,0,0-7.821,3.92,3.92,0,0,0-3.307-1.531,3.77,3.77,0,0,0-3.237,1.531,7.477,7.477,0,0,0-.025,7.845,3.809,3.809,0,0,0,3.261,1.476,3.914,3.914,0,0,0,3.307-1.5M386.99,96.978h8.461v.53l-6.036,1.5Z" transform="translate(-216.084 -21.715)" fill="#000"/>
    <path id="Path_153" data-name="Path 153" d="M494.627,101.076h-1.188a8.241,8.241,0,0,1-2.046,4.054,5.7,5.7,0,0,1-4.385,1.675,6.731,6.731,0,0,1-5.356-2.315q-2.006-2.315-2-7.962,0-5.687,2-8.02a6.71,6.71,0,0,1,5.356-2.336,6.022,6.022,0,0,1,4.449,1.586,7.043,7.043,0,0,1,1.984,3.877h1.188Zm-4.152,3.35a6.442,6.442,0,0,0,2.116-2.888,13.105,13.105,0,0,0,.815-5,13.455,13.455,0,0,0-.815-5.068,6.474,6.474,0,0,0-2.116-2.909,4.673,4.673,0,0,0-2.756-.919,4,4,0,0,0-3.7,2.18q-1.225,2.183-1.225,6.722,0,4.492,1.225,6.654a3.981,3.981,0,0,0,3.724,2.144,4.673,4.673,0,0,0,2.756-.919m2.2-21.638a2.783,2.783,0,0,0-1.785-.573V81.6h5.377v21.68a2.494,2.494,0,0,0,.7,2.027,2.72,2.72,0,0,0,1.764.573v.612h-5.368V84.815a2.447,2.447,0,0,0-.726-2.027" transform="translate(-287.446 -11.322)" fill="#000"/>
    <path id="Path_154" data-name="Path 154" d="M564.919,110.736a10.988,10.988,0,0,1-2.2,4.593,5.466,5.466,0,0,1-4.452,1.837,5.052,5.052,0,0,1-3.981-1.654q-1.467-1.654-1.455-5.206a18.319,18.319,0,0,1,.358-3.522l12.861-1.225v.793L556,107.983a11.13,11.13,0,0,0-.263,2.557,6.209,6.209,0,0,0,.86,3.567,3,3,0,0,0,2.664,1.225,4.149,4.149,0,0,0,3.368-1.586,9.584,9.584,0,0,0,1.853-3.981,23.1,23.1,0,0,0,.551-5.135,9.294,9.294,0,0,0-1.081-4.8,4.029,4.029,0,0,0-3.77-1.807,4.393,4.393,0,0,0-3.194,1.056,3.448,3.448,0,0,0-1.078,2.557,3.25,3.25,0,0,0,.175,1.1,1.176,1.176,0,0,0,.484.658v.178l-3.041.306-.037-.156a4.729,4.729,0,0,1-.306-1.632,5.1,5.1,0,0,1,1.807-3.923,7.9,7.9,0,0,1,5.42-1.629,7.153,7.153,0,0,1,4.826,1.409,6.376,6.376,0,0,1,2.073,3.417,20.94,20.94,0,0,1,.462,4.648v7.625a2.539,2.539,0,0,0,.683,2.027,2.689,2.689,0,0,0,1.782.573v.612H565.1v-6.124Z" transform="translate(-338.217 -21.688)" fill="#000"/>
    <path id="Path_155" data-name="Path 155" d="M609.063,99.034a4.137,4.137,0,0,0-2.073-.551V97.87H612.5l6.477,19.92h-3.087l-5.42-16.879a3.206,3.206,0,0,0-1.409-1.871m14.056.4a1.8,1.8,0,0,0-1.145-.747,8,8,0,0,0-1.938-.2v-.612h8.372v.612a4.073,4.073,0,0,0-2.092.551,3.219,3.219,0,0,0-1.39,1.871l-6.908,21.279a15.917,15.917,0,0,1-1.17,2.8,3.369,3.369,0,0,1-1.387,1.366,4.949,4.949,0,0,1-2.2.42,4.649,4.649,0,0,1-3.675-1.412,4.49,4.49,0,0,1-.992-3.656l2.909.352a3.593,3.593,0,0,0,.462,2.578,1.929,1.929,0,0,0,1.565.815,1.88,1.88,0,0,0,1.586-.683,9.461,9.461,0,0,0,1.145-2.578L623.18,100.9a1.693,1.693,0,0,0-.046-1.476" transform="translate(-375.792 -22.61)" fill="#000"/>
    <path id="Path_156" data-name="Path 156" d="M352,68.381a1.816,1.816,0,0,1,.567.328l-.34.456a1.531,1.531,0,0,0-.4-.236,1.225,1.225,0,0,0-.447-.077.87.87,0,0,0-.741.386,2.03,2.03,0,0,0-.266,1.145,1.908,1.908,0,0,0,.263,1.118.885.885,0,0,0,.744.374,1.145,1.145,0,0,0,.435-.077,1.7,1.7,0,0,0,.42-.251l.334.478a1.883,1.883,0,0,1-1.225.441,1.6,1.6,0,0,1-1.277-.545,2.244,2.244,0,0,1-.465-1.51,2.73,2.73,0,0,1,.211-1.115,1.693,1.693,0,0,1,.612-.741,1.6,1.6,0,0,1,.919-.266,1.941,1.941,0,0,1,.652.1" transform="translate(-197.218 -2.088)" fill="#000"/>
    <path id="Path_157" data-name="Path 157" d="M368.21,68.3l-.129.683a1.4,1.4,0,0,0-.346-.046.75.75,0,0,0-.612.273,2.042,2.042,0,0,0-.355.848v2.281h-.7V68.361h.612l.067.811a1.489,1.489,0,0,1,.432-.686.971.971,0,0,1,.637-.227,1.582,1.582,0,0,1,.392.046" transform="translate(-208.647 -2.067)" fill="#000"/>
    <path id="Path_158" data-name="Path 158" d="M381.5,70.57h-2.548a1.574,1.574,0,0,0,.334.965.977.977,0,0,0,.744.306,1.642,1.642,0,0,0,.53-.083,2.091,2.091,0,0,0,.508-.266l.306.42a2.229,2.229,0,0,1-1.384.508,1.629,1.629,0,0,1-1.3-.545,2.245,2.245,0,0,1-.465-1.5,2.867,2.867,0,0,1,.2-1.1,1.749,1.749,0,0,1,.579-.756,1.458,1.458,0,0,1,.882-.273,1.476,1.476,0,0,1,1.225.524,2.226,2.226,0,0,1,.413,1.448,2.809,2.809,0,0,1-.015.355m-.68-.567a1.485,1.485,0,0,0-.236-.919.833.833,0,0,0-.7-.306c-.573,0-.882.42-.934,1.259h1.874Z" transform="translate(-217.075 -2.054)" fill="#000"/>
    <path id="Path_159" data-name="Path 159" d="M398.368,71.718a.5.5,0,0,0,.251.178l-.159.487a1.035,1.035,0,0,1-.5-.175.793.793,0,0,1-.282-.426,1.335,1.335,0,0,1-1.191.612,1.271,1.271,0,0,1-.919-.334,1.173,1.173,0,0,1-.352-.87,1.148,1.148,0,0,1,.456-.977,2.144,2.144,0,0,1,1.314-.355h.612v-.306a.787.787,0,0,0-.2-.612.946.946,0,0,0-.631-.181,3.509,3.509,0,0,0-1.075.211l-.175-.508a4.039,4.039,0,0,1,1.378-.273,1.439,1.439,0,0,1,1.053.346,1.317,1.317,0,0,1,.349.98v1.837a.612.612,0,0,0,.083.358m-.781-.475v-.919h-.521q-1.105,0-1.109.818a.756.756,0,0,0,.175.539.686.686,0,0,0,.514.181,1.041,1.041,0,0,0,.94-.612" transform="translate(-228.867 -2.016)" fill="#000"/>
    <path id="Path_160" data-name="Path 160" d="M413.273,70.366a1.06,1.06,0,0,1-.79-.306,1.167,1.167,0,0,1-.285-.845V66.82h-.7v-.539h.7v-.919l.7-.083v.986h.946l-.077.539h-.87v2.379a.759.759,0,0,0,.107.45.444.444,0,0,0,.367.141,1.013,1.013,0,0,0,.533-.175l.263.478a1.531,1.531,0,0,1-.894.273" transform="translate(-240.165 0)" fill="#000"/>
    <rect id="Rectangle_58" data-name="Rectangle 58" width="0.698" height="3.993" transform="translate(175.861 66.281)" fill="#000"/>
    <path id="Path_161" data-name="Path 161" d="M436.248,72.543,434.87,68.55h.756l1.047,3.371,1.038-3.371h.735l-1.357,3.993Z" transform="translate(-256.379 -2.269)" fill="#000"/>
    <path id="Path_162" data-name="Path 162" d="M454.958,70.55h-2.545a1.556,1.556,0,0,0,.334.965.965.965,0,0,0,.741.306,1.617,1.617,0,0,0,.53-.083,2.092,2.092,0,0,0,.508-.266l.306.42a2.214,2.214,0,0,1-1.393.5,1.629,1.629,0,0,1-1.3-.545,2.244,2.244,0,0,1-.465-1.5,2.808,2.808,0,0,1,.2-1.1,1.717,1.717,0,0,1,.576-.756,1.464,1.464,0,0,1,.882-.273,1.485,1.485,0,0,1,1.225.524,2.242,2.242,0,0,1,.423,1.448,3.518,3.518,0,0,1,0,.355m-.7-.557a1.485,1.485,0,0,0-.236-.919.833.833,0,0,0-.7-.306c-.57,0-.882.42-.919,1.259H454.3Z" transform="translate(-268.033 -2.033)" fill="#000"/>
    <path id="Path_163" data-name="Path 163" d="M470.545,68.349a2.225,2.225,0,0,1,.612.343l-.306.462a2.077,2.077,0,0,0-.511-.279,1.558,1.558,0,0,0-.521-.086.918.918,0,0,0-.539.141.472.472,0,0,0,0,.759,2.1,2.1,0,0,0,.671.266,2.413,2.413,0,0,1,1,.453,1,1,0,0,1,.331.79,1.017,1.017,0,0,1-.459.9,1.942,1.942,0,0,1-1.118.306,2.214,2.214,0,0,1-1.51-.524l.389-.441a1.635,1.635,0,0,0,1.105.4,1.105,1.105,0,0,0,.612-.159.493.493,0,0,0,.236-.426.612.612,0,0,0-.073-.346.68.68,0,0,0-.282-.227,4.046,4.046,0,0,0-.612-.2,2.036,2.036,0,0,1-.919-.453.962.962,0,0,1-.285-.717.919.919,0,0,1,.187-.56,1.2,1.2,0,0,1,.514-.389,1.859,1.859,0,0,1,.741-.141,2.205,2.205,0,0,1,.735.113" transform="translate(-279.496 -2.046)" fill="#000"/>
    <path id="Path_164" data-name="Path 164" d="M681.609,141.59h-.643a4.036,4.036,0,0,1-4.036,4.036v.643a4.036,4.036,0,0,1,4.036,4.036h.643a4.036,4.036,0,0,1,4.036-4.036v-.643a4.036,4.036,0,0,1-4.036-4.036" transform="translate(-424.315 -52.942)" fill="#000"/>
  </g>
</svg>
