<svg id="pinterest" xmlns="http://www.w3.org/2000/svg" width="19.846" height="19.846" viewBox="0 0 19.846 19.846">
  <path id="Path_217" data-name="Path 217" d="M0,9.923a9.924,9.924,0,0,0,5.94,9.089,8.718,8.718,0,0,1,.173-2.279c.191-.806,1.277-5.407,1.277-5.407a3.812,3.812,0,0,1-.317-1.57c0-1.471.852-2.569,1.914-2.569a1.329,1.329,0,0,1,1.339,1.49A21.364,21.364,0,0,1,9.448,12.2a1.536,1.536,0,0,0,1.566,1.911c1.88,0,3.146-2.415,3.146-5.276,0-2.175-1.465-3.8-4.129-3.8A4.7,4.7,0,0,0,5.147,9.783,2.865,2.865,0,0,0,5.8,11.73a.481.481,0,0,1,.143.553c-.048.183-.157.622-.2.8a.342.342,0,0,1-.5.248c-1.386-.566-2.032-2.084-2.032-3.791,0-2.819,2.377-6.2,7.092-6.2,3.789,0,6.282,2.741,6.282,5.684,0,3.893-2.164,6.8-5.354,6.8a2.846,2.846,0,0,1-2.424-1.237s-.576,2.286-.7,2.728a8.309,8.309,0,0,1-1,2.126A9.923,9.923,0,1,0,0,9.923Z" transform="translate(0 0)" fill="#fff"/>
</svg>
